<svg xmlns="http://www.w3.org/2000/svg" width="750" height="260" viewBox="0 150 750 203" version="1.1"><path d="M 256.250 226.116 C 255.563 226.822, 255 227.971, 255 228.669 C 255 229.366, 254.403 229.708, 253.672 229.428 C 251.622 228.641, 246.818 230.785, 243.500 233.966 C 235.628 241.514, 234.894 242, 231.355 242 C 228.642 242, 226.991 242.809, 224.385 245.415 C 222.054 247.746, 219.627 249.052, 216.735 249.533 C 210.724 250.532, 207.159 252.615, 204.894 256.455 C 202.529 260.464, 199.763 261.452, 198.148 258.865 C 196.449 256.145, 193.434 256.582, 191.079 259.889 L 189.022 262.778 180.761 259.902 C 173.673 257.435, 170.982 257.025, 161.809 257.013 C 155.161 257.005, 150.862 256.586, 150.442 255.906 C 149.782 254.839, 147.140 255.049, 143.886 256.426 C 142.654 256.948, 142.124 256.369, 141.647 253.984 C 141.133 251.417, 140.663 250.972, 139.017 251.495 C 137.422 252.001, 137.146 251.783, 137.666 250.428 C 138.216 248.994, 137.861 248.821, 135.410 249.326 C 133.809 249.657, 130.925 250.209, 129 250.555 C 127.060 250.903, 124.546 252.315, 123.360 253.721 L 121.219 256.258 120.533 252.193 C 120.068 249.443, 119.040 247.601, 117.352 246.495 C 115.026 244.971, 114.605 244.986, 111.082 246.729 L 107.306 248.598 105.699 245.799 C 104.816 244.260, 103.233 243, 102.181 243 C 101.130 243, 99.126 242.100, 97.727 241 C 96.329 239.900, 94.468 239, 93.592 239 C 92.717 239, 92 238.588, 92 238.083 C 92 236.797, 82.983 236.937, 80.529 238.261 C 78.041 239.603, 74.037 239.869, 73.338 238.738 C 72.642 237.612, 70 239.895, 70 241.622 C 70 242.380, 69.550 243, 69 243 C 68.450 243, 68 241.650, 68 240 C 68 236.187, 66.388 236.161, 64.220 239.940 C 63.275 241.587, 60.902 243.521, 58.827 244.336 C 55.465 245.657, 54.977 245.632, 53.561 244.067 C 52.702 243.119, 52 241.780, 52 241.092 C 52 240.203, 51.060 240.045, 48.750 240.546 C 45.349 241.284, 44.062 242.486, 43.984 245 C 43.958 245.825, 42.777 247.346, 41.358 248.380 C 39.226 249.935, 38.627 250.021, 37.905 248.880 C 37.424 248.121, 37.024 246.905, 37.015 246.177 C 37.007 245.449, 36.219 245.004, 35.265 245.187 C 34.144 245.403, 33.321 246.807, 32.939 249.158 C 32.400 252.475, 29 257.579, 29 255.071 C 29 253.356, 26.030 253.832, 23.292 255.985 C 20.769 257.970, 20.766 257.970, 17.807 255.863 C 12.960 252.412, 8.279 251.817, 3.829 254.087 L -0 256.041 -0 324.522 L -0 393.003 375.250 392.751 L 750.500 392.500 750.617 323.500 C 750.682 285.550, 750.540 255.498, 750.302 256.717 C 749.978 258.376, 748.943 259.086, 746.185 259.538 C 744.158 259.870, 739.575 260.966, 736 261.974 C 732.425 262.981, 725.855 263.996, 721.400 264.229 C 714.410 264.594, 712.396 265.148, 706.711 268.273 C 701.604 271.080, 699.379 271.774, 696.812 271.360 C 694.765 271.030, 691.590 271.560, 688.500 272.748 C 684.200 274.401, 683.150 274.486, 681 273.350 C 677.552 271.529, 669.686 271.670, 665.218 273.634 C 663.069 274.578, 658.546 275.317, 654.500 275.384 C 648.366 275.486, 647.274 275.221, 645.674 273.246 C 644.670 272.006, 641.899 269.651, 639.517 268.012 C 637.134 266.372, 633.681 263.636, 631.843 261.930 C 625.858 256.376, 625.351 256, 623.857 256 C 623.046 256, 621.548 256.610, 620.529 257.355 C 619.221 258.312, 616.675 258.567, 611.865 258.222 C 606.650 257.849, 604.474 258.114, 602.583 259.354 C 600.300 260.850, 599.890 260.844, 597.161 259.278 C 593.895 257.403, 592.597 257.783, 586.102 262.521 C 581.975 265.532, 578.685 265.648, 573.461 262.966 C 568.883 260.616, 566.272 260.962, 560.602 264.673 C 551.636 270.541, 544.568 270.110, 537.526 263.266 L 532.859 258.730 526.930 259.350 C 523.285 259.730, 521 259.590, 521 258.985 C 521 258.443, 519.538 257.989, 517.750 257.976 C 515.962 257.963, 512.836 257.566, 510.802 257.093 C 508.282 256.508, 506.348 256.626, 504.735 257.463 C 499.933 259.954, 497.198 260.091, 493.789 258.013 C 488.449 254.757, 480.950 255.278, 472.097 259.521 C 465.184 262.834, 464.671 262.937, 463.407 261.271 C 462.668 260.297, 462.049 259.153, 462.032 258.729 C 462.014 258.304, 460.875 257.445, 459.500 256.818 C 458.125 256.192, 457 254.878, 457 253.899 C 457 252.919, 456.566 251.850, 456.036 251.522 C 454.642 250.661, 443.763 253.665, 437.444 256.656 C 434.463 258.068, 431.339 258.960, 430.503 258.640 C 429.667 258.319, 427.862 258.482, 426.491 259.003 C 424.146 259.895, 424 259.756, 424 256.630 C 424 252.516, 421.409 250, 417.171 250 C 415.427 250, 414 249.550, 414 249 C 414 247.088, 409.985 244, 407.500 244 C 406.091 244, 405 243.422, 405 242.674 C 405 241.945, 403.890 240.306, 402.533 239.031 C 400.349 236.979, 399.406 236.781, 394.313 237.307 C 389.123 237.843, 388.213 237.637, 385.029 235.208 C 382.095 232.969, 380.255 232.452, 374.114 232.141 C 365.981 231.730, 357.216 233.993, 354.183 237.287 C 348.794 243.140, 345.249 245.991, 343.355 245.995 C 342.175 245.998, 340.219 247.030, 339.008 248.288 C 335.501 251.932, 330.945 250.889, 328.840 245.962 C 327.666 243.211, 326.376 241.882, 324.403 241.386 C 322.873 241.002, 320.183 239.250, 318.425 237.492 C 316.572 235.638, 313.378 233.829, 310.825 233.186 C 308.403 232.576, 305.360 230.948, 304.064 229.568 C 302.767 228.187, 300.310 226.641, 298.603 226.131 C 296.180 225.408, 279.097 225.351, 268 226.030 C 267.175 226.080, 264.475 225.831, 262 225.476 C 258.910 225.033, 257.108 225.234, 256.250 226.116 M 0.473 324.500 C 0.473 362.450, 0.598 377.830, 0.750 358.677 C 0.902 339.524, 0.902 308.474, 0.749 289.677 C 0.597 270.880, 0.473 286.550, 0.473 324.500" stroke="none" fill="#2f1d49" fill-rule="evenodd"/><path d="M 244 123.104 C 244 128.076, 238.121 139.879, 233.858 143.466 C 232.282 144.792, 231.382 146.118, 231.857 146.412 C 232.333 146.706, 232.764 155.958, 232.815 166.973 L 232.907 187 222.454 187 C 212.149 187, 212 187.034, 212 189.349 C 212 191.646, 211.876 191.678, 206.250 190.789 C 203.088 190.289, 196.786 190.020, 192.248 190.190 C 184.521 190.480, 182.847 189.934, 184.250 187.581 C 184.387 187.350, 183.409 186, 182.076 184.581 C 179.561 181.904, 176.598 181.223, 175.463 183.060 C 175.049 183.730, 174.303 183.454, 173.436 182.310 C 172.681 181.314, 172.049 180.870, 172.032 181.323 C 172.014 181.775, 170.805 181.205, 169.345 180.056 C 166.350 177.701, 160.887 178.042, 157.750 180.782 C 156.787 181.622, 156 181.893, 156 181.382 C 156 180.872, 154.537 179.684, 152.750 178.741 C 149.792 177.182, 147.832 176.960, 137.078 176.971 C 134.965 176.973, 132.788 177.790, 131.386 179.107 C 129.136 181.221, 128.846 181.234, 99.991 180.500 L 70.866 179.759 71.018 174.630 C 71.102 171.808, 71.132 166.463, 71.085 162.750 L 71 156 62.500 156 L 54 156 53.915 162.750 C 53.868 166.463, 53.897 171.792, 53.980 174.593 L 54.130 179.686 41.815 180.347 C 35.042 180.711, 29.350 181.457, 29.167 182.005 C 28.983 182.552, 27.633 183.005, 26.167 183.011 C 24.700 183.017, 21.813 183.301, 19.750 183.642 C 16.087 184.247, 16 184.363, 16 188.606 C 16 192.885, 15.956 192.941, 13.043 192.359 C 10.672 191.884, 9.085 192.501, 5.043 195.469 L 0 199.170 -0 227.605 L -0 256.041 3.829 254.087 C 8.279 251.817, 12.960 252.412, 17.807 255.863 C 20.766 257.970, 20.769 257.970, 23.292 255.985 C 26.030 253.832, 29 253.356, 29 255.071 C 29 257.579, 32.400 252.475, 32.939 249.158 C 33.321 246.807, 34.144 245.403, 35.265 245.187 C 36.219 245.004, 37.007 245.449, 37.015 246.177 C 37.024 246.905, 37.424 248.121, 37.905 248.880 C 38.627 250.021, 39.226 249.935, 41.358 248.380 C 42.777 247.346, 43.958 245.825, 43.984 245 C 44.062 242.486, 45.349 241.284, 48.750 240.546 C 51.060 240.045, 52 240.203, 52 241.092 C 52 241.780, 52.702 243.119, 53.561 244.067 C 54.977 245.632, 55.465 245.657, 58.827 244.336 C 60.902 243.521, 63.275 241.587, 64.220 239.940 C 66.388 236.161, 68 236.187, 68 240 C 68 241.650, 68.450 243, 69 243 C 69.550 243, 70 242.380, 70 241.622 C 70 239.895, 72.642 237.612, 73.338 238.738 C 74.037 239.869, 78.041 239.603, 80.529 238.261 C 82.983 236.937, 92 236.797, 92 238.083 C 92 238.588, 92.717 239, 93.592 239 C 94.468 239, 96.329 239.900, 97.727 241 C 99.126 242.100, 101.130 243, 102.181 243 C 103.233 243, 104.816 244.260, 105.699 245.799 L 107.306 248.598 111.082 246.729 C 114.605 244.986, 115.026 244.971, 117.352 246.495 C 119.040 247.601, 120.068 249.443, 120.533 252.193 L 121.219 256.258 123.360 253.721 C 124.546 252.315, 127.060 250.903, 129 250.555 C 130.925 250.209, 133.809 249.657, 135.410 249.326 C 137.861 248.821, 138.216 248.994, 137.666 250.428 C 137.146 251.783, 137.422 252.001, 139.017 251.495 C 140.663 250.972, 141.133 251.417, 141.647 253.984 C 142.124 256.369, 142.654 256.948, 143.886 256.426 C 147.140 255.049, 149.782 254.839, 150.442 255.906 C 150.862 256.586, 155.161 257.005, 161.809 257.013 C 170.982 257.025, 173.673 257.435, 180.761 259.902 L 189.022 262.778 191.079 259.889 C 193.434 256.582, 196.449 256.145, 198.148 258.865 C 199.763 261.452, 202.529 260.464, 204.894 256.455 C 207.159 252.615, 210.724 250.532, 216.735 249.533 C 219.627 249.052, 222.054 247.746, 224.385 245.415 C 226.991 242.809, 228.642 242, 231.355 242 C 234.897 242, 235.746 241.437, 243.500 233.943 C 246.562 230.984, 252.612 228.279, 253.712 229.378 C 254.047 229.714, 254.829 228.978, 255.450 227.744 C 256.358 225.939, 257.353 225.529, 260.539 225.649 C 262.718 225.730, 265.625 225.836, 267 225.883 C 268.375 225.930, 275.350 225.797, 282.500 225.587 C 296.866 225.164, 300.569 225.848, 304.064 229.568 C 305.360 230.948, 308.403 232.576, 310.825 233.186 C 313.378 233.829, 316.572 235.638, 318.425 237.492 C 320.183 239.250, 322.873 241.002, 324.403 241.386 C 326.376 241.882, 327.666 243.211, 328.840 245.962 C 330.945 250.889, 335.501 251.932, 339.008 248.288 C 340.219 247.030, 342.175 245.998, 343.355 245.995 C 345.249 245.991, 348.794 243.140, 354.183 237.287 C 357.216 233.993, 365.981 231.730, 374.114 232.141 C 380.255 232.452, 382.095 232.969, 385.029 235.208 C 388.213 237.637, 389.123 237.843, 394.313 237.307 C 399.406 236.781, 400.349 236.979, 402.533 239.031 C 403.890 240.306, 405 241.945, 405 242.674 C 405 243.422, 406.091 244, 407.500 244 C 409.985 244, 414 247.088, 414 249 C 414 249.550, 415.505 250, 417.345 250 C 421.477 250, 424 252.579, 424 256.804 C 424 259.744, 424.163 259.888, 426.491 259.003 C 427.862 258.482, 429.667 258.319, 430.503 258.640 C 431.339 258.960, 434.463 258.068, 437.444 256.656 C 443.763 253.665, 454.642 250.661, 456.036 251.522 C 456.566 251.850, 457 252.919, 457 253.899 C 457 254.878, 458.125 256.192, 459.500 256.818 C 460.875 257.445, 462.014 258.304, 462.032 258.729 C 462.049 259.153, 462.668 260.297, 463.407 261.271 C 464.671 262.937, 465.184 262.834, 472.097 259.521 C 480.950 255.278, 488.449 254.757, 493.789 258.013 C 497.198 260.091, 499.933 259.954, 504.735 257.463 C 506.348 256.626, 508.282 256.508, 510.802 257.093 C 512.836 257.566, 515.962 257.963, 517.750 257.976 C 519.538 257.989, 521 258.443, 521 258.985 C 521 259.590, 523.285 259.730, 526.930 259.350 L 532.859 258.730 537.526 263.266 C 544.568 270.110, 551.636 270.541, 560.602 264.673 C 566.272 260.962, 568.883 260.616, 573.461 262.966 C 578.685 265.648, 581.975 265.532, 586.102 262.521 C 592.597 257.783, 593.895 257.403, 597.161 259.278 C 599.890 260.844, 600.300 260.850, 602.583 259.354 C 604.474 258.114, 606.650 257.849, 611.865 258.222 C 616.675 258.567, 619.221 258.312, 620.529 257.355 C 621.548 256.610, 623.046 256, 623.857 256 C 625.351 256, 625.858 256.376, 631.843 261.930 C 633.681 263.636, 637.134 266.372, 639.517 268.012 C 641.899 269.651, 644.670 272.006, 645.674 273.246 C 647.274 275.221, 648.366 275.486, 654.500 275.384 C 658.546 275.317, 663.069 274.578, 665.218 273.634 C 669.686 271.670, 677.552 271.529, 681 273.350 C 683.150 274.486, 684.200 274.401, 688.500 272.748 C 691.590 271.560, 694.765 271.030, 696.812 271.360 C 699.379 271.774, 701.604 271.080, 706.711 268.273 C 712.396 265.148, 714.410 264.594, 721.400 264.229 C 725.855 263.996, 732.425 262.981, 736 261.974 C 739.575 260.966, 744.133 259.874, 746.130 259.548 C 749.204 259.045, 749.854 258.480, 750.380 255.852 C 751.199 251.753, 751.181 202.599, 750.357 196.590 L 749.714 191.900 740.373 192.586 C 733.664 193.078, 730.623 192.932, 729.579 192.065 C 727.933 190.699, 714.858 190.118, 710.887 191.235 C 708.358 191.946, 708.255 191.803, 707.646 186.735 C 707.300 183.856, 707.013 175.537, 707.009 168.250 L 707 155 703.500 155 L 700 155 699.998 174.750 L 699.995 194.500 694.331 197.500 C 691.216 199.150, 688.293 200.650, 687.834 200.833 C 687.375 201.017, 687 194.675, 687 186.740 C 687 178.806, 686.706 166.843, 686.346 160.157 L 685.693 148 682.346 148 L 679 148 678.974 173.250 L 678.948 198.500 675.224 200.141 C 670.739 202.117, 661.288 203.275, 660.469 201.950 C 660.146 201.427, 659.084 201, 658.108 201 C 657.132 201, 654.769 199.436, 652.858 197.525 C 649.738 194.405, 648.648 193.981, 642.191 193.381 C 638.136 193.004, 635 193.102, 635 193.606 C 635 194.098, 631.730 194.500, 627.732 194.500 C 621.929 194.500, 619.882 194.924, 617.574 196.603 C 615.079 198.418, 614.137 198.568, 610.706 197.697 C 607.853 196.973, 606.206 197.015, 604.878 197.844 C 603.860 198.480, 601.521 199, 599.680 199 C 597.839 199, 595.995 199.338, 595.582 199.750 C 595.168 200.162, 591.082 200.500, 586.500 200.500 C 579.431 200.500, 577.710 200.840, 575.126 202.750 C 573.451 203.988, 571.793 205, 571.442 205 C 571.090 205, 569.322 205.702, 567.514 206.560 C 564.534 207.974, 563.875 207.974, 560.491 206.560 C 554.571 204.087, 552.208 204.580, 546.469 209.483 C 540.412 214.657, 537.418 216, 531.935 216 L 528 216 528 198 L 528 180 520 180 L 512 180 512 176.500 L 512 173 503 173 L 494 173 494 176.500 L 494 180 488 180 L 482 180 482 195.551 L 482 211.102 478.750 208.625 C 476.876 207.197, 473.806 206.011, 471.500 205.824 L 467.500 205.500 467.226 188.250 L 466.953 171 457.976 171 L 449 171 449 167 L 449 163 438.500 163 L 428 163 428 167 L 428 171 421 171 L 414 171 414 185.609 L 414 200.219 410.250 199.491 C 408.188 199.091, 403.208 198.728, 399.185 198.684 C 392.137 198.607, 391.852 198.510, 391.351 196.007 C 390.806 193.280, 385.980 190.957, 377.751 189.460 C 375.059 188.970, 373.647 188.034, 372.740 186.139 C 371.984 184.561, 370.094 183.052, 368.038 182.385 C 366.147 181.772, 364.181 180.332, 363.670 179.186 C 363.158 178.040, 361.369 176.801, 359.694 176.433 C 358.018 176.065, 354.650 174.649, 352.209 173.286 C 348.606 171.274, 346.961 170.929, 343.474 171.452 C 341.078 171.811, 338.918 171.676, 338.590 171.146 C 337.732 169.757, 322.822 169.903, 321.115 171.318 C 320.331 171.968, 317.846 172.549, 315.594 172.609 C 310.379 172.748, 304.333 174.404, 302.177 176.285 C 301.255 177.089, 298.867 178.039, 296.871 178.396 C 293.485 179.002, 289.895 182.229, 284.781 189.262 C 283.593 190.897, 283.103 190.737, 278 187.045 C 272.731 183.231, 272.175 183.063, 264.750 183.032 L 257 183 257.044 175.750 C 257.068 171.762, 257.457 166.588, 257.909 164.250 C 258.366 161.890, 258.347 160, 257.866 160 C 256.722 160, 256.758 153.331, 257.923 149.267 C 258.730 146.454, 258.498 145.674, 256.080 143.085 C 251.789 138.492, 246 126.729, 246 122.604 C 246 120.622, 245.550 119, 245 119 C 244.450 119, 244 120.847, 244 123.104 M 242.571 151.571 C 241.707 152.436, 241 153.754, 241 154.500 C 241 155.793, 243.592 159, 244.637 159 C 246.534 159, 249 156.550, 249 154.665 C 249 150.399, 245.452 148.691, 242.571 151.571 M 0.441 227.500 C 0.442 243.450, 0.580 249.835, 0.748 241.689 C 0.916 233.543, 0.916 220.493, 0.747 212.689 C 0.579 204.885, 0.441 211.550, 0.441 227.500" stroke="none" fill="#6c4893" fill-rule="evenodd"/></svg>