<svg xmlns="http://www.w3.org/2000/svg" version="1.1" xmlns:xlink="http://www.w3.org/1999/xlink" xmlns:svgjs="http://svgjs.dev/svgjs" width="2000" height="666" viewBox="0 0 2000 666"><g transform="matrix(1,0,0,1,-1.2108838630663286,-0.11798830345173883)"><svg viewBox="0 0 396 132" data-background-color="#ffffff" preserveAspectRatio="xMidYMid meet" height="666" width="2000" xmlns="http://www.w3.org/2000/svg" xmlns:xlink="http://www.w3.org/1999/xlink"><g id="tight-bounds" transform="matrix(1,0,0,1,0.24024499511290287,0.02338506915259586)"><svg viewBox="0 0 395.52 131.95322986169478" height="131.95322986169478" width="395.52"><g><svg viewBox="0 0 395.52 131.95322986169478" height="131.95322986169478" width="395.52"><g transform="matrix(1,0,0,1,0,68.05572392590541)"><svg viewBox="0 0 395.52 63.89750593578937" height="63.89750593578937" width="395.52"><g id="textblocktransform"><svg viewBox="0 0 395.52 63.89750593578937" height="63.89750593578937" width="395.52" id="textblock"><g><svg viewBox="0 0 395.52 63.89750593578937" height="63.89750593578937" width="395.52"><g transform="matrix(1,0,0,1,0,0)"><svg width="395.52" viewBox="2.8754 -21.00587 322.87990999999994 52.16228" height="63.89750593578937" data-palette-color="#ffffff"><path d="M2.875 15.116l6.925-36.122 4.017 0.77-3.127 16.313 17.069 3.272 3.127-16.313 3.997 0.767-6.924 36.122-3.998-0.766 3.141-16.382-17.069-3.272-3.141 16.381zM40.727 7.416v0c0.526-3.602 1.074-6.089 1.644-7.461 0.578-1.378 1.192-2.443 1.842-3.198 0.656-0.753 1.476-1.341 2.46-1.763v0c1.972-0.864 4.726-1.038 8.262-0.522v0c5.106 0.745 8.204 2.484 9.294 5.217v0c0.648 1.651 0.836 3.875 0.562 6.671v0c-0.145 1.319-0.334 2.774-0.566 4.364-0.231 1.583-0.5 3.053-0.805 4.41-0.299 1.358-0.68 2.562-1.144 3.613-0.463 1.051-1.022 1.946-1.676 2.686-0.659 0.732-1.475 1.314-2.447 1.745v0c-1.899 0.821-4.523 0.987-7.875 0.498v0c-5.007-0.731-8.115-2.448-9.324-5.151v0c-0.745-1.679-0.995-3.918-0.747-6.718v0c0.115-1.344 0.289-2.808 0.52-4.391zM45.751 18.275c0.505 0.512 1.173 0.939 2.005 1.283 0.84 0.338 2.009 0.617 3.507 0.836 1.497 0.219 2.789 0.188 3.873-0.092 1.085-0.28 1.954-0.853 2.606-1.722 0.652-0.868 1.157-2.044 1.516-3.528 0.352-1.491 0.675-3.237 0.966-5.235 0.291-1.992 0.474-3.663 0.55-5.013 0.076-1.35-0.06-2.498-0.407-3.445v0c-0.701-1.847-2.693-3.011-5.978-3.49v0c-3.47-0.506-5.854 0.018-7.153 1.573v0c-0.649 0.801-1.145 1.864-1.486 3.189-0.342 1.325-0.628 2.782-0.86 4.372-0.231 1.583-0.407 2.929-0.529 4.036-0.121 1.107-0.161 2.116-0.118 3.024 0.037 0.901 0.169 1.702 0.397 2.403 0.229 0.694 0.599 1.297 1.111 1.809zM87.642 1.964v0c-2.601-0.249-5.53 0.399-8.785 1.943v0l-2.147 22.467-3.972-0.379 2.722-28.48 3.494 0.334 0.097 2.982c3.012-2.016 6.25-2.858 9.714-2.527v0c1.978 0.189 3.51 0.62 4.598 1.293 1.087 0.68 1.824 1.688 2.212 3.024v0c3.755-2.086 7.219-2.977 10.392-2.673v0c3 0.287 5.018 1.173 6.054 2.658v0c0.989 1.427 1.321 3.833 0.998 7.218v0l-1.896 19.839-4.022-0.384 1.826-19.103c0.219-2.296 0.138-3.794-0.244-4.494-0.381-0.706-0.869-1.205-1.464-1.496-0.588-0.291-1.294-0.475-2.117-0.554-0.823-0.079-1.603-0.076-2.341 0.008-0.745 0.083-1.504 0.215-2.278 0.395v0c-1.564 0.386-3.078 0.918-4.542 1.595v0c-0.012 0.963-0.053 1.813-0.124 2.55v0l-1.896 19.839-4.021-0.384 1.825-19.103c0.219-2.296 0.135-3.794-0.253-4.495-0.381-0.706-0.866-1.205-1.455-1.495-0.595-0.291-1.387-0.484-2.375-0.578zM143.881 26.107l1.028 3.489c-3.375 1.18-7.064 1.683-11.066 1.507v0c-2.324-0.102-4.282-0.428-5.873-0.978v0c-2.545-0.852-4.194-2.449-4.945-4.79v0c-0.691-2.192-0.944-5.41-0.759-9.653v0l0.054-1.229c0.222-5.075 1.437-8.592 3.645-10.55v0c1.985-1.742 5.202-2.515 9.65-2.32v0c4.343 0.19 7.259 1.392 8.751 3.606v0c0.72 1.073 1.171 2.357 1.353 3.853 0.188 1.49 0.253 2.907 0.194 4.252v0c-0.092 2.098-0.213 3.721-0.363 4.869v0c-2.262 0.001-4.289-0.038-6.081-0.116v0c0 0-1.289-0.056-3.866-0.169v0c-4.036-0.177-7.135-0.489-9.298-0.938v0c-0.161 3.683 0.193 6.271 1.061 7.764v0c1.054 1.828 3.28 2.816 6.677 2.965 3.397 0.149 6.676-0.372 9.838-1.562zM126.428 14.123l15.345 0.671 0.101-2.297c0.11-2.518-0.297-4.334-1.223-5.449v0c-1.04-1.247-2.895-1.928-5.566-2.045v0c-3.204-0.14-5.422 0.46-6.655 1.8v0c-1.177 1.276-1.844 3.716-2.002 7.32zM162.816 31.155l-0.014-13.58-11.991-23.205 4.47 0.002 7.864 15.793 1.768 4.061 1.762-4.13 7.696-15.717 4.52 0.002-11.999 23.195-0.036 13.58zM183.716 16.774v0c-0.118-3.638-0.017-6.183 0.303-7.634 0.326-1.458 0.742-2.615 1.248-3.472 0.513-0.857 1.216-1.58 2.111-2.17v0c1.789-1.199 4.469-1.856 8.04-1.971v0c5.157-0.167 8.513 0.998 10.069 3.496v0c0.929 1.511 1.506 3.666 1.73 6.467v0c0.09 1.324 0.16 2.79 0.213 4.395 0.052 1.599 0.047 3.093-0.015 4.483-0.055 1.389-0.218 2.642-0.489 3.758-0.271 1.116-0.662 2.096-1.175 2.94-0.52 0.837-1.22 1.554-2.102 2.149v0c-1.724 1.143-4.278 1.769-7.663 1.879v0c-5.057 0.164-8.419-0.978-10.086-3.425v0c-1.03-1.521-1.67-3.681-1.921-6.481v0c-0.124-1.343-0.211-2.815-0.263-4.414zM190.577 26.577c0.587 0.415 1.321 0.718 2.201 0.909 0.886 0.185 2.086 0.253 3.598 0.204 1.513-0.049 2.778-0.307 3.797-0.774 1.019-0.467 1.773-1.185 2.261-2.154 0.489-0.97 0.779-2.216 0.87-3.74 0.084-1.53 0.093-3.305 0.027-5.324-0.065-2.012-0.18-3.689-0.343-5.031-0.164-1.342-0.5-2.448-1.008-3.32v0c-1.015-1.695-3.182-2.488-6.5-2.38v0c-3.505 0.114-5.759 1.05-6.763 2.81v0c-0.498 0.903-0.798 2.037-0.9 3.401-0.103 1.364-0.128 2.849-0.076 4.455 0.052 1.599 0.116 2.954 0.192 4.066 0.076 1.111 0.215 2.111 0.417 2.998 0.195 0.881 0.467 1.646 0.815 2.295 0.348 0.642 0.818 1.171 1.412 1.585zM229.996 3.236v0c-3.119 0.225-6.227 1.375-9.326 3.449v0l1.623 22.512-3.98 0.287-2.057-28.536 3.501-0.253 0.602 2.925c1.64-1.549 3.731-2.722 6.273-3.52v0c1.039-0.329 2.27-0.545 3.693-0.648 1.423-0.103 2.688-0.03 3.795 0.218 1.114 0.254 2.017 0.717 2.707 1.389v0c1.257 1.206 2.008 3.521 2.256 6.946v0l1.433 19.878-4.03 0.291-1.38-19.141c-0.166-2.301-0.495-3.764-0.988-4.39-0.493-0.633-1.058-1.043-1.693-1.232-0.629-0.189-1.438-0.247-2.429-0.175zM270.62 24.571l-0.94-3.215c-3.088 2.821-6.367 4.428-9.838 4.823v0c-3.835 0.436-6.552-0.68-8.151-3.349v0c-0.91-1.513-1.51-3.153-1.797-4.919-0.295-1.765-0.519-3.319-0.672-4.664-0.153-1.345-0.294-2.704-0.424-4.078-0.13-1.374-0.174-2.651-0.134-3.829 0.04-1.185 0.195-2.263 0.468-3.234 0.265-0.976 0.711-1.832 1.338-2.568v0c1.297-1.516 3.615-2.465 6.953-2.844 3.332-0.379 6.412-0.143 9.239 0.71v0l-1.535-13.493 3.921-0.829 3.183 27.97c0.625 5.491 1.262 9.767 1.913 12.826v0zM268.216 11.317l-1.18-10.634c-2.977-0.627-5.803-0.789-8.48-0.485v0c-1.941 0.221-3.204 0.526-3.791 0.915-0.586 0.389-1.013 0.857-1.279 1.403-0.267 0.547-0.455 1.276-0.566 2.188v0c-0.174 1.717-0.042 4.494 0.394 8.329v0l0.06 0.527c0.408 3.584 1.081 6.016 2.018 7.298v0c1.006 1.348 2.658 1.892 4.956 1.631v0l0.358-0.041c2.193-0.25 4.451-1.214 6.776-2.895v0c0.645-0.463 1.191-0.914 1.637-1.354v0l-0.004-0.039c-0.248-1.475-0.548-3.755-0.899-6.843zM304.896 14.308l1.693 3.218c-3.078 1.82-6.596 3.036-10.556 3.651v0c-2.299 0.356-4.283 0.421-5.95 0.193v0c-2.663-0.336-4.593-1.578-5.789-3.727v0c-1.108-2.014-1.988-5.119-2.639-9.315v0l-0.188-1.216c-0.778-5.02-0.277-8.707 1.503-11.061v0c1.604-2.097 4.607-3.487 9.007-4.169v0c4.295-0.666 7.391-0.06 9.289 1.818v0c0.917 0.91 1.611 2.081 2.082 3.513 0.477 1.424 0.819 2.801 1.025 4.132v0c0.322 2.075 0.522 3.69 0.6 4.845v0c-2.218 0.445-4.213 0.805-5.985 1.08v0c0 0-1.275 0.198-3.825 0.593v0c-3.992 0.619-7.093 0.921-9.301 0.905v0c0.565 3.643 1.42 6.111 2.565 7.405v0c1.393 1.585 3.769 2.118 7.129 1.596 3.36-0.521 6.473-1.675 9.34-3.461zM285.43 5.982l15.179-2.354-0.352-2.273c-0.386-2.49-1.142-4.191-2.269-5.102v0c-1.264-1.018-3.217-1.323-5.859-0.913v0c-3.169 0.491-5.226 1.515-6.172 3.072v0c-0.904 1.483-1.079 4.006-0.527 7.57zM322.892-9.62v0c-2.017 0.384-3.882 1.781-5.595 4.19v0l4.124 21.661-3.92 0.747-5.351-28.106 3.448-0.656 1.094 3.66c0.521-1.294 1.149-2.343 1.884-3.148 0.734-0.812 1.364-1.339 1.888-1.581v0c0.743-0.372 1.469-0.626 2.176-0.761 0.707-0.135 1.625-0.163 2.753-0.086v0l0.362 3.83c-0.842-0.037-1.796 0.047-2.863 0.25z" opacity="1" transform="matrix(1,0,0,1,0,0)" fill="#ffffff" class="wordmark-text-0" data-fill-palette-color="primary" id="text-0"></path></svg></g></svg></g></svg></g></svg></g><g transform="matrix(1,0,0,1,149.40350273748942,0)"><svg viewBox="0 0 96.71299452502112 63.89750593578937" height="63.89750593578937" width="96.71299452502112"><g><svg xmlns="http://www.w3.org/2000/svg" xmlns:xlink="http://www.w3.org/1999/xlink" version="1.1" x="0" y="0" viewBox="8.189 6.884 94.73400000000001 62.58999999999999" enable-background="new 0 0 107.895 78.07" xml:space="preserve" height="63.89750593578937" width="96.71299452502112" class="icon-icon-0" data-fill-palette-color="accent" id="icon-0"><polygon points="102.923,54.276 96.612,60.683 55.61,19.633 14.584,60.683 8.189,54.276 55.584,6.887 55.655,6.955 55.904,6.884   75.281,26.08 75.281,12.474 83.281,12.474 83.281,34.824 " fill="#4429ec" data-fill-palette-color="accent"></polygon><rect x="47.281" y="40.474" width="17" height="29" fill="#4429ec" data-fill-palette-color="accent"></rect></svg></g></svg></g><g></g></svg></g><defs></defs></svg><rect width="395.52" height="131.95322986169478" fill="none" stroke="none" visibility="hidden"></rect></g></svg></g></svg>